<svg width="229" height="124" viewBox="0 0 229 124" fill="none" xmlns="http://www.w3.org/2000/svg">
<g filter="url(#filter0_d_161_66)">
<rect x="25" y="20" width="169" height="64" rx="12" fill="white"/>
</g>
<path fill-rule="evenodd" clip-rule="evenodd" d="M62 33C54.8398 33 49 38.7433 49 45.785C49 47.7827 49.8238 50.0745 50.941 52.5771C52.0582 55.0797 53.497 57.7377 54.9583 60.2126C57.8811 65.1679 60.8264 69.3131 60.8264 69.3131L62 71L63.1736 69.3131C63.1736 69.3131 66.1189 65.1679 69.0417 60.2126C70.503 57.7377 71.9418 55.0797 73.059 52.5771C74.1762 50.0745 75 47.7827 75 45.785C75 38.7433 69.1602 33 62 33ZM62 35.8411C67.6029 35.8411 72.1111 40.2748 72.1111 45.785C72.1111 46.9226 71.4905 49.0756 70.441 51.4229C69.3915 53.7702 67.9414 56.3727 66.5139 58.7921C64.3078 62.5375 62.913 64.5666 62.07 65.793L62 65.8949L61.93 65.7931L61.93 65.7931C61.087 64.5666 59.6922 62.5375 57.4861 58.7921C56.0586 56.3727 54.6085 53.7702 53.559 51.4229C52.5095 49.0756 51.8889 46.9226 51.8889 45.785C51.8889 40.2748 56.3971 35.8411 62 35.8411ZM59.1111 45.785C59.1111 44.2147 60.4032 42.9439 62 42.9439C63.5968 42.9439 64.8889 44.2147 64.8889 45.785C64.8889 47.3554 63.5968 48.6262 62 48.6262C60.4032 48.6262 59.1111 47.3554 59.1111 45.785Z" fill="#F6B76C"/>
<path d="M104.906 60.312C103.121 60.312 101.578 59.922 100.278 59.142C98.9953 58.3447 97.9987 57.244 97.288 55.84C96.5773 54.4187 96.222 52.772 96.222 50.9C96.222 49.0453 96.5773 47.416 97.288 46.012C97.9987 44.5907 98.9953 43.4813 100.278 42.684C101.578 41.8867 103.121 41.488 104.906 41.488C106.986 41.488 108.676 41.9907 109.976 42.996C111.293 43.984 112.134 45.3707 112.498 47.156H110.08C109.803 46.0293 109.231 45.128 108.364 44.452C107.515 43.7587 106.362 43.412 104.906 43.412C103.606 43.412 102.471 43.7153 101.5 44.322C100.529 44.9113 99.7753 45.7693 99.238 46.896C98.718 48.0053 98.458 49.34 98.458 50.9C98.458 52.46 98.718 53.8033 99.238 54.93C99.7753 56.0393 100.529 56.8973 101.5 57.504C102.471 58.0933 103.606 58.388 104.906 58.388C106.362 58.388 107.515 58.0587 108.364 57.4C109.231 56.724 109.803 55.8313 110.08 54.722H112.498C112.134 56.4727 111.293 57.842 109.976 58.83C108.676 59.818 106.986 60.312 104.906 60.312ZM115.637 60V41.8H121.227C124.434 41.8 126.791 42.6147 128.299 44.244C129.824 45.8733 130.587 48.1093 130.587 50.952C130.587 53.7427 129.824 55.9527 128.299 57.582C126.791 59.194 124.434 60 121.227 60H115.637ZM117.821 58.18H121.175C122.943 58.18 124.347 57.894 125.387 57.322C126.444 56.7327 127.198 55.9007 127.649 54.826C128.1 53.734 128.325 52.4427 128.325 50.952C128.325 49.4267 128.1 48.118 127.649 47.026C127.198 45.934 126.444 45.0933 125.387 44.504C124.347 43.9147 122.943 43.62 121.175 43.62H117.821V58.18ZM133.74 60V41.8H136.288L142.84 54.488L149.34 41.8H151.914V60H149.73V45.7L143.646 57.4H142.008L135.924 45.726V60H133.74ZM154.818 60L160.382 50.822L154.818 41.8H157.288L161.76 49.08L166.024 41.8H168.468L162.904 50.926L168.494 60H166.024L161.526 52.694L157.288 60H154.818Z" fill="#333333"/>
<defs>
<filter id="filter0_d_161_66" x="0" y="0" width="229" height="124" filterUnits="userSpaceOnUse" color-interpolation-filters="sRGB">
<feFlood flood-opacity="0" result="BackgroundImageFix"/>
<feColorMatrix in="SourceAlpha" type="matrix" values="0 0 0 0 0 0 0 0 0 0 0 0 0 0 0 0 0 0 127 0" result="hardAlpha"/>
<feOffset dx="5" dy="10"/>
<feGaussianBlur stdDeviation="15"/>
<feColorMatrix type="matrix" values="0 0 0 0 0.380392 0 0 0 0 0.192157 0 0 0 0 0 0 0 0 0.15 0"/>
<feBlend mode="normal" in2="BackgroundImageFix" result="effect1_dropShadow_161_66"/>
<feBlend mode="normal" in="SourceGraphic" in2="effect1_dropShadow_161_66" result="shape"/>
</filter>
</defs>
</svg>
