<svg width="218" height="208" viewBox="0 0 218 208" fill="none" xmlns="http://www.w3.org/2000/svg">
<g filter="url(#filter0_d_0_506)">
<rect x="30" y="20" width="138" height="128" rx="12" fill="#F6B76C"/>
<path fill-rule="evenodd" clip-rule="evenodd" d="M88.7929 63.0394C83.2009 63.0394 78.6255 67.5882 78.6255 73.1479C78.6255 78.7074 83.2009 83.2562 88.7929 83.2562C94.3849 83.2562 98.9602 78.7074 98.9602 73.1479C98.9603 67.5882 94.385 63.0394 88.7929 63.0394ZM88.7929 78.7074C85.7427 78.7074 83.2009 76.1804 83.2009 73.1479C83.2009 70.1154 85.7427 67.5883 88.7929 67.5883C91.8431 67.5883 94.3849 70.1154 94.3849 73.1479C94.385 76.1804 91.8431 78.7074 88.7929 78.7074ZM109.128 85.7832C103.536 85.7832 98.9603 90.332 98.9603 95.8915C98.9603 101.451 103.536 106 109.128 106C114.72 106 119.295 101.451 119.295 95.8917C119.295 90.3321 114.72 85.7832 109.128 85.7832ZM109.128 101.451C106.077 101.451 103.536 98.9242 103.536 95.8917C103.536 92.8592 106.077 90.332 109.128 90.332C112.178 90.332 114.72 92.859 114.72 95.8915C114.72 98.9241 112.178 101.451 109.128 101.451Z" fill="white"/>
</g>
<defs>
<filter id="filter0_d_0_506" x="0" y="0" width="218" height="208" filterUnits="userSpaceOnUse" color-interpolation-filters="sRGB">
<feFlood flood-opacity="0" result="BackgroundImageFix"/>
<feColorMatrix in="SourceAlpha" type="matrix" values="0 0 0 0 0 0 0 0 0 0 0 0 0 0 0 0 0 0 127 0" result="hardAlpha"/>
<feOffset dx="10" dy="20"/>
<feGaussianBlur stdDeviation="20"/>
<feColorMatrix type="matrix" values="0 0 0 0 0.351111 0 0 0 0 0.0679569 0 0 0 0 0 0 0 0 0.19653 0"/>
<feBlend mode="normal" in2="BackgroundImageFix" result="effect1_dropShadow_0_506"/>
<feBlend mode="normal" in="SourceGraphic" in2="effect1_dropShadow_0_506" result="shape"/>
</filter>
</defs>
</svg>
