<svg width="250" height="240" viewBox="0 0 250 240" fill="none" xmlns="http://www.w3.org/2000/svg">
<g filter="url(#filter0_d_0_759)">
<rect x="30" y="20" width="170" height="160" rx="12" fill="#EB8E78"/>
<path fill-rule="evenodd" clip-rule="evenodd" d="M133 63C123.098 63 115 71.0977 115 81C115 83.9766 116.148 87.0117 117.625 90.375C119.102 93.7383 120.965 97.3008 122.875 100.594C126.695 107.18 130.562 112.688 130.562 112.688L133 116.25L135.438 112.688C135.438 112.688 139.305 107.18 143.125 100.594C145.035 97.3008 146.898 93.7383 148.375 90.375C149.852 87.0117 151 83.9766 151 81C151 71.0977 142.902 63 133 63ZM102.906 68.8125L79 79.0312V136.594L103.094 126.188L127.094 135.188L151 124.969V98.8125C149.09 102.48 146.969 105.996 145 109.125V121.031L130 127.406V122.531L125.594 116.156C125.125 115.477 124.574 114.668 124 113.812V127.688L106 120.938V76.3125L109.281 77.5312C109.574 75.5039 110.102 73.5469 110.875 71.7188L102.906 68.8125ZM145 81C145 74.3438 139.656 69 133 69C126.344 69 121 74.3438 121 81C121 82.1602 121.727 84.9023 123.062 87.9375C124.398 90.9727 126.285 94.418 128.125 97.5938C130.272 101.291 131.347 102.901 132.503 104.63C132.666 104.874 132.831 105.12 133 105.375C133.169 105.12 133.334 104.874 133.497 104.63C134.653 102.901 135.728 101.291 137.875 97.5938C139.715 94.418 141.602 90.9727 142.938 87.9375C144.273 84.9023 145 82.1602 145 81ZM100 76.5V121.031L85 127.406V82.9688L100 76.5ZM128.5 81C128.5 78.5156 130.516 76.5 133 76.5C135.484 76.5 137.5 78.5156 137.5 81C137.5 83.4844 135.484 85.5 133 85.5C130.516 85.5 128.5 83.4844 128.5 81Z" fill="white"/>
</g>
<defs>
<filter id="filter0_d_0_759" x="0" y="0" width="250" height="240" filterUnits="userSpaceOnUse" color-interpolation-filters="sRGB">
<feFlood flood-opacity="0" result="BackgroundImageFix"/>
<feColorMatrix in="SourceAlpha" type="matrix" values="0 0 0 0 0 0 0 0 0 0 0 0 0 0 0 0 0 0 127 0" result="hardAlpha"/>
<feOffset dx="10" dy="20"/>
<feGaussianBlur stdDeviation="20"/>
<feColorMatrix type="matrix" values="0 0 0 0 0.301961 0 0 0 0 0.164706 0 0 0 0 0 0 0 0 0.2 0"/>
<feBlend mode="normal" in2="BackgroundImageFix" result="effect1_dropShadow_0_759"/>
<feBlend mode="normal" in="SourceGraphic" in2="effect1_dropShadow_0_759" result="shape"/>
</filter>
</defs>
</svg>
