<svg width="250" height="240" viewBox="0 0 250 240" fill="none" xmlns="http://www.w3.org/2000/svg">
<g filter="url(#filter0_d_0_516)">
<rect x="30" y="20" width="170" height="160" rx="12" fill="#AFD3AA"/>
<mask id="mask0_0_516" style="mask-type:alpha" maskUnits="userSpaceOnUse" x="30" y="20" width="170" height="160">
<rect x="30" y="20" width="170" height="160" rx="12" fill="white"/>
</mask>
<g mask="url(#mask0_0_516)">
<path d="M53 141L179 79.4648" stroke="#D2E9CF" stroke-width="2" stroke-linecap="square"/>
<path d="M185 101.438L138 43.4531" stroke="#D2E9CF" stroke-width="2" stroke-linecap="square"/>
<path d="M138 153.703L59.9413 49" stroke="#D2E9CF" stroke-width="2" stroke-linecap="square"/>
<path fill-rule="evenodd" clip-rule="evenodd" d="M119 49C111.289 49 105 55.2891 105 63C105 70.0312 110.234 75.8359 117 76.8125V95H121V76.8125C127.766 75.8359 133 70.0312 133 63C133 55.2891 126.711 49 119 49ZM119 53C124.547 53 129 57.4531 129 63C129 68.5469 124.547 73 119 73C113.453 73 109 68.5469 109 63C109 57.4531 113.453 53 119 53ZM111 63C111 58.6016 114.602 55 119 55V59C116.766 59 115 60.7656 115 63H111Z" fill="white"/>
<path fill-rule="evenodd" clip-rule="evenodd" d="M71 88C65.4922 88 61 92.375 61 97.7391C61 102.63 64.7388 106.668 69.5714 107.348V120H72.4286V107.348C77.2612 106.668 81 102.63 81 97.7391C81 92.375 76.5078 88 71 88ZM71 90.7826C74.9621 90.7826 78.1429 93.8804 78.1429 97.7391C78.1429 101.598 74.9621 104.696 71 104.696C67.0379 104.696 63.8571 101.598 63.8571 97.7391C63.8571 93.8804 67.0379 90.7826 71 90.7826ZM65.2857 97.7391C65.2857 94.6793 67.8583 92.1739 71 92.1739V94.9565C69.404 94.9565 68.1429 96.1848 68.1429 97.7391H65.2857Z" fill="white"/>
<path fill-rule="evenodd" clip-rule="evenodd" d="M159 116C155.145 116 152 119.008 152 122.696C152 126.058 154.617 128.835 158 129.302V138H160V129.302C163.383 128.835 166 126.058 166 122.696C166 119.008 162.855 116 159 116ZM159 117.913C161.773 117.913 164 120.043 164 122.696C164 125.349 161.773 127.478 159 127.478C156.227 127.478 154 125.349 154 122.696C154 120.043 156.227 117.913 159 117.913ZM155 122.696C155 120.592 156.801 118.87 159 118.87V120.783C157.883 120.783 157 121.627 157 122.696H155Z" fill="white"/>
</g>
</g>
<defs>
<filter id="filter0_d_0_516" x="0" y="0" width="250" height="240" filterUnits="userSpaceOnUse" color-interpolation-filters="sRGB">
<feFlood flood-opacity="0" result="BackgroundImageFix"/>
<feColorMatrix in="SourceAlpha" type="matrix" values="0 0 0 0 0 0 0 0 0 0 0 0 0 0 0 0 0 0 127 0" result="hardAlpha"/>
<feOffset dx="10" dy="20"/>
<feGaussianBlur stdDeviation="20"/>
<feColorMatrix type="matrix" values="0 0 0 0 0.351111 0 0 0 0 0.0679569 0 0 0 0 0 0 0 0 0.19653 0"/>
<feBlend mode="normal" in2="BackgroundImageFix" result="effect1_dropShadow_0_516"/>
<feBlend mode="normal" in="SourceGraphic" in2="effect1_dropShadow_0_516" result="shape"/>
</filter>
</defs>
</svg>
