<svg width="36" height="54" viewBox="0 0 36 54" fill="none" xmlns="http://www.w3.org/2000/svg">
<path fill-rule="evenodd" clip-rule="evenodd" d="M18 0C8.08594 0 0 8.08594 0 18C0 20.8125 1.14063 24.0391 2.6875 27.5625C4.23438 31.0859 6.22656 34.8281 8.25 38.3125C12.2969 45.2891 16.375 51.125 16.375 51.125L18 53.5L19.625 51.125C19.625 51.125 23.7031 45.2891 27.75 38.3125C29.7734 34.8281 31.7656 31.0859 33.3125 27.5625C34.8594 24.0391 36 20.8125 36 18C36 8.08594 27.9141 0 18 0ZM18 4C25.7578 4 32 10.2422 32 18C32 19.6016 31.1406 22.6328 29.6875 25.9375C28.2344 29.2422 26.2266 32.9062 24.25 36.3125C21.1954 41.5858 19.2642 44.4425 18.0968 46.1692L18 46.3125L17.9032 46.1692L17.9031 46.1692C16.7358 44.4425 14.8045 41.5858 11.75 36.3125C9.77344 32.9062 7.76563 29.2422 6.3125 25.9375C4.85938 22.6328 4 19.6016 4 18C4 10.2422 10.2422 4 18 4ZM14 18C14 15.7891 15.7891 14 18 14C20.2109 14 22 15.7891 22 18C22 20.2109 20.2109 22 18 22C15.7891 22 14 20.2109 14 18Z" fill="#55A74A"/>
</svg>
