<svg width="188" height="116" viewBox="0 0 188 116" fill="none" xmlns="http://www.w3.org/2000/svg">
<path fill-rule="evenodd" clip-rule="evenodd" d="M108 2C108 3.10457 107.105 4 106 4C104.895 4 104 3.10457 104 2C104 0.89543 104.895 0 106 0C107.105 0 108 0.89543 108 2ZM106 20C107.105 20 108 19.1046 108 18C108 16.8954 107.105 16 106 16C104.895 16 104 16.8954 104 18C104 19.1046 104.895 20 106 20ZM122 20C123.105 20 124 19.1046 124 18C124 16.8954 123.105 16 122 16C120.895 16 120 16.8954 120 18C120 19.1046 120.895 20 122 20ZM140 18C140 19.1046 139.105 20 138 20C136.895 20 136 19.1046 136 18C136 16.8954 136.895 16 138 16C139.105 16 140 16.8954 140 18ZM154 20C155.105 20 156 19.1046 156 18C156 16.8954 155.105 16 154 16C152.895 16 152 16.8954 152 18C152 19.1046 152.895 20 154 20ZM172 18C172 19.1046 171.105 20 170 20C168.895 20 168 19.1046 168 18C168 16.8954 168.895 16 170 16C171.105 16 172 16.8954 172 18ZM186 20C187.105 20 188 19.1046 188 18C188 16.8954 187.105 16 186 16C184.895 16 184 16.8954 184 18C184 19.1046 184.895 20 186 20ZM122 4C123.105 4 124 3.10457 124 2C124 0.89543 123.105 0 122 0C120.895 0 120 0.89543 120 2C120 3.10457 120.895 4 122 4ZM140 2C140 3.10457 139.105 4 138 4C136.895 4 136 3.10457 136 2C136 0.89543 136.895 0 138 0C139.105 0 140 0.89543 140 2ZM154 4C155.105 4 156 3.10457 156 2C156 0.89543 155.105 0 154 0C152.895 0 152 0.89543 152 2C152 3.10457 152.895 4 154 4ZM172 2C172 3.10457 171.105 4 170 4C168.895 4 168 3.10457 168 2C168 0.89543 168.895 0 170 0C171.105 0 172 0.89543 172 2ZM186 4C187.105 4 188 3.10457 188 2C188 0.89543 187.105 0 186 0C184.895 0 184 0.89543 184 2C184 3.10457 184.895 4 186 4ZM2 20C3.10457 20 4 19.1046 4 18C4 16.8954 3.10457 16 2 16C0.89543 16 0 16.8954 0 18C0 19.1046 0.89543 20 2 20ZM18 20C19.1046 20 20 19.1046 20 18C20 16.8954 19.1046 16 18 16C16.8954 16 16 16.8954 16 18C16 19.1046 16.8954 20 18 20ZM36 18C36 19.1046 35.1046 20 34 20C32.8954 20 32 19.1046 32 18C32 16.8954 32.8954 16 34 16C35.1046 16 36 16.8954 36 18ZM50 20C51.1046 20 52 19.1046 52 18C52 16.8954 51.1046 16 50 16C48.8954 16 48 16.8954 48 18C48 19.1046 48.8954 20 50 20ZM68 18C68 19.1046 67.1046 20 66 20C64.8954 20 64 19.1046 64 18C64 16.8954 64.8954 16 66 16C67.1046 16 68 16.8954 68 18ZM82 20C83.1046 20 84 19.1046 84 18C84 16.8954 83.1046 16 82 16C80.8954 16 80 16.8954 80 18C80 19.1046 80.8954 20 82 20ZM2 4C3.10457 4 4 3.10457 4 2C4 0.89543 3.10457 0 2 0C0.89543 0 0 0.89543 0 2C0 3.10457 0.89543 4 2 4ZM12 34C12 35.1046 11.1046 36 10 36C8.89543 36 8 35.1046 8 34C8 32.8954 8.89543 32 10 32C11.1046 32 12 32.8954 12 34ZM10 52C11.1046 52 12 51.1046 12 50C12 48.8954 11.1046 48 10 48C8.89543 48 8 48.8954 8 50C8 51.1046 8.89543 52 10 52ZM26 52C27.1046 52 28 51.1046 28 50C28 48.8954 27.1046 48 26 48C24.8954 48 24 48.8954 24 50C24 51.1046 24.8954 52 26 52ZM44 50C44 51.1046 43.1046 52 42 52C40.8954 52 40 51.1046 40 50C40 48.8954 40.8954 48 42 48C43.1046 48 44 48.8954 44 50ZM58 52C59.1046 52 60 51.1046 60 50C60 48.8954 59.1046 48 58 48C56.8954 48 56 48.8954 56 50C56 51.1046 56.8954 52 58 52ZM76 50C76 51.1046 75.1046 52 74 52C72.8954 52 72 51.1046 72 50C72 48.8954 72.8954 48 74 48C75.1046 48 76 48.8954 76 50ZM90 52C91.1046 52 92 51.1046 92 50C92 48.8954 91.1046 48 90 48C88.8954 48 88 48.8954 88 50C88 51.1046 88.8954 52 90 52ZM26 36C27.1046 36 28 35.1046 28 34C28 32.8954 27.1046 32 26 32C24.8954 32 24 32.8954 24 34C24 35.1046 24.8954 36 26 36ZM44 34C44 35.1046 43.1046 36 42 36C40.8954 36 40 35.1046 40 34C40 32.8954 40.8954 32 42 32C43.1046 32 44 32.8954 44 34ZM58 36C59.1046 36 60 35.1046 60 34C60 32.8954 59.1046 32 58 32C56.8954 32 56 32.8954 56 34C56 35.1046 56.8954 36 58 36ZM76 34C76 35.1046 75.1046 36 74 36C72.8954 36 72 35.1046 72 34C72 32.8954 72.8954 32 74 32C75.1046 32 76 32.8954 76 34ZM90 36C91.1046 36 92 35.1046 92 34C92 32.8954 91.1046 32 90 32C88.8954 32 88 32.8954 88 34C88 35.1046 88.8954 36 90 36ZM18 4C19.1046 4 20 3.10457 20 2C20 0.89543 19.1046 0 18 0C16.8954 0 16 0.89543 16 2C16 3.10457 16.8954 4 18 4ZM108 34C108 35.1046 107.105 36 106 36C104.895 36 104 35.1046 104 34C104 32.8954 104.895 32 106 32C107.105 32 108 32.8954 108 34ZM106 52C107.105 52 108 51.1046 108 50C108 48.8954 107.105 48 106 48C104.895 48 104 48.8954 104 50C104 51.1046 104.895 52 106 52ZM122 52C123.105 52 124 51.1046 124 50C124 48.8954 123.105 48 122 48C120.895 48 120 48.8954 120 50C120 51.1046 120.895 52 122 52ZM140 50C140 51.1046 139.105 52 138 52C136.895 52 136 51.1046 136 50C136 48.8954 136.895 48 138 48C139.105 48 140 48.8954 140 50ZM154 52C155.105 52 156 51.1046 156 50C156 48.8954 155.105 48 154 48C152.895 48 152 48.8954 152 50C152 51.1046 152.895 52 154 52ZM172 50C172 51.1046 171.105 52 170 52C168.895 52 168 51.1046 168 50C168 48.8954 168.895 48 170 48C171.105 48 172 48.8954 172 50ZM186 52C187.105 52 188 51.1046 188 50C188 48.8954 187.105 48 186 48C184.895 48 184 48.8954 184 50C184 51.1046 184.895 52 186 52ZM122 36C123.105 36 124 35.1046 124 34C124 32.8954 123.105 32 122 32C120.895 32 120 32.8954 120 34C120 35.1046 120.895 36 122 36ZM140 34C140 35.1046 139.105 36 138 36C136.895 36 136 35.1046 136 34C136 32.8954 136.895 32 138 32C139.105 32 140 32.8954 140 34ZM154 36C155.105 36 156 35.1046 156 34C156 32.8954 155.105 32 154 32C152.895 32 152 32.8954 152 34C152 35.1046 152.895 36 154 36ZM172 34C172 35.1046 171.105 36 170 36C168.895 36 168 35.1046 168 34C168 32.8954 168.895 32 170 32C171.105 32 172 32.8954 172 34ZM186 36C187.105 36 188 35.1046 188 34C188 32.8954 187.105 32 186 32C184.895 32 184 32.8954 184 34C184 35.1046 184.895 36 186 36ZM34 4C35.1046 4 36 3.10457 36 2C36 0.89543 35.1046 0 34 0C32.8954 0 32 0.89543 32 2C32 3.10457 32.8954 4 34 4ZM52 2C52 3.10457 51.1046 4 50 4C48.8954 4 48 3.10457 48 2C48 0.89543 48.8954 0 50 0C51.1046 0 52 0.89543 52 2ZM66 4C67.1046 4 68 3.10457 68 2C68 0.89543 67.1046 0 66 0C64.8954 0 64 0.89543 64 2C64 3.10457 64.8954 4 66 4ZM84 2C84 3.10457 83.1046 4 82 4C80.8954 4 80 3.10457 80 2C80 0.89543 80.8954 0 82 0C83.1046 0 84 0.89543 84 2Z" fill="#333333"/>
<path fill-rule="evenodd" clip-rule="evenodd" d="M108 66C108 67.1046 107.105 68 106 68C104.895 68 104 67.1046 104 66C104 64.8954 104.895 64 106 64C107.105 64 108 64.8954 108 66ZM106 84C107.105 84 108 83.1046 108 82C108 80.8954 107.105 80 106 80C104.895 80 104 80.8954 104 82C104 83.1046 104.895 84 106 84ZM122 84C123.105 84 124 83.1046 124 82C124 80.8954 123.105 80 122 80C120.895 80 120 80.8954 120 82C120 83.1046 120.895 84 122 84ZM140 82C140 83.1046 139.105 84 138 84C136.895 84 136 83.1046 136 82C136 80.8954 136.895 80 138 80C139.105 80 140 80.8954 140 82ZM154 84C155.105 84 156 83.1046 156 82C156 80.8954 155.105 80 154 80C152.895 80 152 80.8954 152 82C152 83.1046 152.895 84 154 84ZM172 82C172 83.1046 171.105 84 170 84C168.895 84 168 83.1046 168 82C168 80.8954 168.895 80 170 80C171.105 80 172 80.8954 172 82ZM186 84C187.105 84 188 83.1046 188 82C188 80.8954 187.105 80 186 80C184.895 80 184 80.8954 184 82C184 83.1046 184.895 84 186 84ZM122 68C123.105 68 124 67.1046 124 66C124 64.8954 123.105 64 122 64C120.895 64 120 64.8954 120 66C120 67.1046 120.895 68 122 68ZM140 66C140 67.1046 139.105 68 138 68C136.895 68 136 67.1046 136 66C136 64.8954 136.895 64 138 64C139.105 64 140 64.8954 140 66ZM154 68C155.105 68 156 67.1046 156 66C156 64.8954 155.105 64 154 64C152.895 64 152 64.8954 152 66C152 67.1046 152.895 68 154 68ZM172 66C172 67.1046 171.105 68 170 68C168.895 68 168 67.1046 168 66C168 64.8954 168.895 64 170 64C171.105 64 172 64.8954 172 66ZM186 68C187.105 68 188 67.1046 188 66C188 64.8954 187.105 64 186 64C184.895 64 184 64.8954 184 66C184 67.1046 184.895 68 186 68ZM2 84C3.10457 84 4 83.1046 4 82C4 80.8954 3.10457 80 2 80C0.89543 80 0 80.8954 0 82C0 83.1046 0.89543 84 2 84ZM18 84C19.1046 84 20 83.1046 20 82C20 80.8954 19.1046 80 18 80C16.8954 80 16 80.8954 16 82C16 83.1046 16.8954 84 18 84ZM36 82C36 83.1046 35.1046 84 34 84C32.8954 84 32 83.1046 32 82C32 80.8954 32.8954 80 34 80C35.1046 80 36 80.8954 36 82ZM50 84C51.1046 84 52 83.1046 52 82C52 80.8954 51.1046 80 50 80C48.8954 80 48 80.8954 48 82C48 83.1046 48.8954 84 50 84ZM68 82C68 83.1046 67.1046 84 66 84C64.8954 84 64 83.1046 64 82C64 80.8954 64.8954 80 66 80C67.1046 80 68 80.8954 68 82ZM82 84C83.1046 84 84 83.1046 84 82C84 80.8954 83.1046 80 82 80C80.8954 80 80 80.8954 80 82C80 83.1046 80.8954 84 82 84ZM2 68C3.10457 68 4 67.1046 4 66C4 64.8954 3.10457 64 2 64C0.89543 64 0 64.8954 0 66C0 67.1046 0.89543 68 2 68ZM12 98C12 99.1046 11.1046 100 10 100C8.89543 100 8 99.1046 8 98C8 96.8954 8.89543 96 10 96C11.1046 96 12 96.8954 12 98ZM10 116C11.1046 116 12 115.105 12 114C12 112.895 11.1046 112 10 112C8.89543 112 8 112.895 8 114C8 115.105 8.89543 116 10 116ZM26 116C27.1046 116 28 115.105 28 114C28 112.895 27.1046 112 26 112C24.8954 112 24 112.895 24 114C24 115.105 24.8954 116 26 116ZM44 114C44 115.105 43.1046 116 42 116C40.8954 116 40 115.105 40 114C40 112.895 40.8954 112 42 112C43.1046 112 44 112.895 44 114ZM58 116C59.1046 116 60 115.105 60 114C60 112.895 59.1046 112 58 112C56.8954 112 56 112.895 56 114C56 115.105 56.8954 116 58 116ZM76 114C76 115.105 75.1046 116 74 116C72.8954 116 72 115.105 72 114C72 112.895 72.8954 112 74 112C75.1046 112 76 112.895 76 114ZM90 116C91.1046 116 92 115.105 92 114C92 112.895 91.1046 112 90 112C88.8954 112 88 112.895 88 114C88 115.105 88.8954 116 90 116ZM26 100C27.1046 100 28 99.1046 28 98C28 96.8954 27.1046 96 26 96C24.8954 96 24 96.8954 24 98C24 99.1046 24.8954 100 26 100ZM44 98C44 99.1046 43.1046 100 42 100C40.8954 100 40 99.1046 40 98C40 96.8954 40.8954 96 42 96C43.1046 96 44 96.8954 44 98ZM58 100C59.1046 100 60 99.1046 60 98C60 96.8954 59.1046 96 58 96C56.8954 96 56 96.8954 56 98C56 99.1046 56.8954 100 58 100ZM76 98C76 99.1046 75.1046 100 74 100C72.8954 100 72 99.1046 72 98C72 96.8954 72.8954 96 74 96C75.1046 96 76 96.8954 76 98ZM90 100C91.1046 100 92 99.1046 92 98C92 96.8954 91.1046 96 90 96C88.8954 96 88 96.8954 88 98C88 99.1046 88.8954 100 90 100ZM18 68C19.1046 68 20 67.1046 20 66C20 64.8954 19.1046 64 18 64C16.8954 64 16 64.8954 16 66C16 67.1046 16.8954 68 18 68ZM108 98C108 99.1046 107.105 100 106 100C104.895 100 104 99.1046 104 98C104 96.8954 104.895 96 106 96C107.105 96 108 96.8954 108 98ZM106 116C107.105 116 108 115.105 108 114C108 112.895 107.105 112 106 112C104.895 112 104 112.895 104 114C104 115.105 104.895 116 106 116ZM122 116C123.105 116 124 115.105 124 114C124 112.895 123.105 112 122 112C120.895 112 120 112.895 120 114C120 115.105 120.895 116 122 116ZM140 114C140 115.105 139.105 116 138 116C136.895 116 136 115.105 136 114C136 112.895 136.895 112 138 112C139.105 112 140 112.895 140 114ZM154 116C155.105 116 156 115.105 156 114C156 112.895 155.105 112 154 112C152.895 112 152 112.895 152 114C152 115.105 152.895 116 154 116ZM172 114C172 115.105 171.105 116 170 116C168.895 116 168 115.105 168 114C168 112.895 168.895 112 170 112C171.105 112 172 112.895 172 114ZM186 116C187.105 116 188 115.105 188 114C188 112.895 187.105 112 186 112C184.895 112 184 112.895 184 114C184 115.105 184.895 116 186 116ZM122 100C123.105 100 124 99.1046 124 98C124 96.8954 123.105 96 122 96C120.895 96 120 96.8954 120 98C120 99.1046 120.895 100 122 100ZM140 98C140 99.1046 139.105 100 138 100C136.895 100 136 99.1046 136 98C136 96.8954 136.895 96 138 96C139.105 96 140 96.8954 140 98ZM154 100C155.105 100 156 99.1046 156 98C156 96.8954 155.105 96 154 96C152.895 96 152 96.8954 152 98C152 99.1046 152.895 100 154 100ZM172 98C172 99.1046 171.105 100 170 100C168.895 100 168 99.1046 168 98C168 96.8954 168.895 96 170 96C171.105 96 172 96.8954 172 98ZM186 100C187.105 100 188 99.1046 188 98C188 96.8954 187.105 96 186 96C184.895 96 184 96.8954 184 98C184 99.1046 184.895 100 186 100ZM34 68C35.1046 68 36 67.1046 36 66C36 64.8954 35.1046 64 34 64C32.8954 64 32 64.8954 32 66C32 67.1046 32.8954 68 34 68ZM52 66C52 67.1046 51.1046 68 50 68C48.8954 68 48 67.1046 48 66C48 64.8954 48.8954 64 50 64C51.1046 64 52 64.8954 52 66ZM66 68C67.1046 68 68 67.1046 68 66C68 64.8954 67.1046 64 66 64C64.8954 64 64 64.8954 64 66C64 67.1046 64.8954 68 66 68ZM84 66C84 67.1046 83.1046 68 82 68C80.8954 68 80 67.1046 80 66C80 64.8954 80.8954 64 82 64C83.1046 64 84 64.8954 84 66Z" fill="#333333"/>
</svg>
