<svg width="47" height="28" viewBox="0 0 47 28" fill="none" xmlns="http://www.w3.org/2000/svg">
<path fill-rule="evenodd" clip-rule="evenodd" d="M30.5237 24.6643H44.3887C45.2627 24.6643 45.9712 25.3889 45.9712 26.2826C45.9712 27.1764 45.2627 27.9011 44.3887 27.9011H2.61095C1.7371 27.9011 1.02846 27.1764 1.02846 26.2826C1.02846 25.3889 1.7371 24.6641 2.61095 24.6641H16.4761C6.93843 21.6013 0 12.473 0 1.71725C0 0.823356 0.708482 0.0987549 1.58249 0.0987549H45.4175C46.2914 0.0987549 47 0.823518 47 1.71725C47 12.473 40.0614 21.6015 30.5237 24.6643ZM23.4998 16.6526C30.9057 16.6526 36.9945 10.7727 37.5422 3.33575H9.4576C10.0053 10.7727 16.0941 16.6526 23.4998 16.6526ZM3.22591 3.33575H6.28645C6.84 12.5589 14.3483 19.8896 23.4998 19.8896C32.6514 19.8896 40.1597 12.5591 40.7136 3.33575H43.7741C42.964 14.0551 34.1802 22.5245 23.4998 22.5245C12.8196 22.5245 4.03599 14.0552 3.22591 3.33575ZM17.249 6.80564C17.249 7.69938 16.5404 8.42414 15.6665 8.42414C14.7927 8.42414 14.084 7.69938 14.084 6.80548V5.70199C14.084 4.80826 14.7927 4.08349 15.6665 4.08349C16.5404 4.08349 17.249 4.80826 17.249 5.70199V6.80564ZM25.0823 6.80564C25.0823 7.69938 24.3739 8.42414 23.4998 8.42414C22.626 8.42414 21.9174 7.69938 21.9174 6.80548V5.70199C21.9174 4.80826 22.626 4.08349 23.4998 4.08349C24.3739 4.08349 25.0823 4.80826 25.0823 5.70199V6.80564ZM31.3332 8.42414C32.2072 8.42414 32.9157 7.69938 32.9157 6.80564V5.70199C32.9157 4.80826 32.2072 4.08349 31.3332 4.08349C30.4593 4.08349 29.7507 4.80826 29.7507 5.70199V6.80548C29.7507 7.69938 30.4593 8.42414 31.3332 8.42414ZM28.999 11.3632C28.999 12.2571 28.2905 12.9817 27.4165 12.9817C26.5427 12.9817 25.834 12.2569 25.834 11.3632V10.2597C25.834 9.36595 26.5427 8.64118 27.4165 8.64118C28.2905 8.64118 28.999 9.36595 28.999 10.2597V11.3632ZM19.5832 12.9817C20.457 12.9817 21.1657 12.2571 21.1657 11.3632V10.2597C21.1657 9.36595 20.4572 8.64118 19.5832 8.64118C18.7093 8.64118 18.0007 9.36595 18.0007 10.2597V11.3632C18.0007 12.2569 18.7093 12.9817 19.5832 12.9817Z" fill="#555555"/>
</svg>
